<svg width="24" height="24" viewBox="0 0 24 24" fill="none" xmlns="http://www.w3.org/2000/svg">
<g clip-path="url(#clip0_12_10)">
<path d="M17.5959 12.7678C17.9711 13.1429 18.4799 13.3537 19.0104 13.3537C19.5409 13.3537 20.0498 13.1429 20.4249 12.7678C20.8 12.3926 21.0108 11.8838 21.0108 11.3533C21.0108 10.8227 20.8 10.3139 20.4249 9.93876L18.6569 8.17176C19.032 8.54678 19.5408 8.75741 20.0713 8.75731C20.3339 8.75727 20.594 8.70549 20.8366 8.60493C21.0793 8.50438 21.2997 8.35702 21.4854 8.17126C21.6711 7.98551 21.8184 7.765 21.9188 7.52232C22.0193 7.27965 22.071 7.01956 22.071 6.75691C22.0709 6.49426 22.0191 6.23419 21.9186 5.99155C21.818 5.74891 21.6707 5.52845 21.4849 5.34276L18.6569 2.51476C18.2819 2.13961 17.7732 1.9288 17.2428 1.92871C16.7123 1.92862 16.2035 2.13925 15.8284 2.51426C15.4533 2.88928 15.2424 3.39796 15.2423 3.92841C15.2423 4.45886 15.4529 4.96761 15.8279 5.34276L14.0609 3.57476C13.8751 3.38901 13.6546 3.24166 13.4119 3.14113C13.1692 3.0406 12.9091 2.98886 12.6464 2.98886C12.3837 2.98886 12.1236 3.0406 11.8809 3.14113C11.6382 3.24166 11.4177 3.38901 11.2319 3.57476C11.0461 3.76052 10.8988 3.98104 10.7983 4.22374C10.6977 4.46644 10.646 4.72657 10.646 4.98926C10.646 5.25196 10.6977 5.51208 10.7983 5.75478C10.8988 5.99748 11.0461 6.21801 11.2319 6.40376L17.5959 12.7678Z" stroke="white" stroke-width="2" stroke-linecap="round" stroke-linejoin="round"/>
<path d="M2.5 21.5001L3.9 20.1001" stroke="white" stroke-width="2" stroke-linecap="round" stroke-linejoin="round"/>
<path d="M20.1001 3.9L21.5001 2.5" stroke="white" stroke-width="2" stroke-linecap="round" stroke-linejoin="round"/>
<path d="M5.34276 21.4849C5.71778 21.8601 6.22646 22.0709 6.75691 22.071C7.01956 22.071 7.27965 22.0193 7.52232 21.9188C7.765 21.8184 7.98551 21.6711 8.17126 21.4854C8.35702 21.2997 8.50438 21.0793 8.60493 20.8366C8.70549 20.594 8.75727 20.3339 8.75731 20.0713C8.75736 19.8086 8.70567 19.5485 8.6052 19.3058C8.50474 19.0632 8.35745 18.8427 8.17176 18.6569L9.93876 20.4249C10.3139 20.8 10.8227 21.0108 11.3533 21.0108C11.8838 21.0108 12.3926 20.8 12.7678 20.4249C13.1429 20.0498 13.3537 19.5409 13.3537 19.0104C13.3537 18.4799 13.1429 17.9711 12.7678 17.5959L6.40376 11.2319C6.21801 11.0461 5.99748 10.8988 5.75478 10.7983C5.51208 10.6977 5.25196 10.646 4.98926 10.646C4.72657 10.646 4.46644 10.6977 4.22374 10.7983C3.98104 10.8988 3.76052 11.0461 3.57476 11.2319C3.38901 11.4177 3.24166 11.6382 3.14113 11.8809C3.0406 12.1236 2.98886 12.3837 2.98886 12.6464C2.98886 12.9091 3.0406 13.1692 3.14113 13.4119C3.24166 13.6546 3.38901 13.8751 3.57476 14.0609L5.34276 15.8279C4.96761 15.4529 4.45886 15.2423 3.92841 15.2423C3.39796 15.2424 2.88928 15.4533 2.51426 15.8284C2.13925 16.2035 1.92862 16.7123 1.92871 17.2428C1.9288 17.7732 2.13961 18.2819 2.51476 18.6569L5.34276 21.4849Z" stroke="white" stroke-width="2" stroke-linecap="round" stroke-linejoin="round"/>
<path d="M9.6001 14.4001L14.4001 9.6001" stroke="white" stroke-width="2" stroke-linecap="round" stroke-linejoin="round"/>
</g>
<defs>
<clipPath id="clip0_12_10">
<rect width="24" height="24" fill="white"/>
</clipPath>
</defs>
</svg>
